PathFileType	4	(X/Y/Z)	c:/Users/goper/Files/vsCode/490R/osim_files/A04/A04_Fast_05.trc
DataRate	CameraRate	NumFrames	NumMarkers	Units                	OrigDataRate	OrigDataStartFrame	OrigNumFrames
120.00	120.00	8	36	mm	120.0	582	1162
                Frame#	Time	LPSIS			LASIS			LTH1			LTH2			LTH3			LTH4			LLFE			LMFE			LSH1			LSH2			LSH3			LSH4			LLMAL			LMMAL			LCAL			LMTP5			LTOE			LMTP1			RPSIS			RASIS			RTH1			RTH2			RTH3			RTH4			RLFE			RMFE			RSH1			RSH2			RSH3			RSH4			RLMAL			RMMAL			RCAL			RMTP1			RTOE			RMTP5		
		X1	Y1	Z1	X2	Y2	Z2	X3	Y3	Z3	X4	Y4	Z4	X5	Y5	Z5	X6	Y6	Z6	X7	Y7	Z7	X8	Y8	Z8	X9	Y9	Z9	X10	Y10	Z10	X11	Y11	Z11	X12	Y12	Z12	X13	Y13	Z13	X14	Y14	Z14	X15	Y15	Z15	X16	Y16	Z16	X17	Y17	Z17	X18	Y18	Z18	X19	Y19	Z19	X20	Y20	Z20	X21	Y21	Z21	X22	Y22	Z22	X23	Y23	Z23	X24	Y24	Z24	X25	Y25	Z25	X26	Y26	Z26	X27	Y27	Z27	X28	Y28	Z28	X29	Y29	Z29	X30	Y30	Z30	X31	Y31	Z31	X32	Y32	Z32	X33	Y33	Z33	X34	Y34	Z34	X35	Y35	Z35	X36	Y36	Z36

582	4.84167	786.52502	1064.42517	400.97983	563.77484	1020.38916	478.85373	529.20404	721.27655	519.00598	506.10364	683.93610	519.51898	486.50046	738.00726	516.89221	458.34515	708.99567	514.70227	427.67389	565.36780	512.92468	413.77356	563.95532	372.84015	450.33011	460.09402	517.15271	439.55139	418.39621	516.40570	390.16776	468.62881	504.58685	388.68649	425.29343	503.62750	432.34427	134.74020	482.19516	409.54703	136.58549	397.15942	495.03693	93.49882	426.41522	292.76700	81.53911	519.19031	244.85464	95.39207	457.64542	260.90643	79.63925	413.51422	789.01434	1052.82275	295.08890	566.70514	1015.37195	193.75055	730.79126	728.31128	179.15401	731.62384	686.14044	183.36681	669.38068	720.00336	171.89140	679.24261	675.19324	180.45638	707.56360	541.86163	213.14377	698.98560	542.08368	328.85681	805.52466	342.99374	229.39691	807.61139	296.12247	239.00360	745.71289	332.64154	222.82631	757.55658	287.10037	229.62877	813.08313	101.28313	241.31265	782.99377	113.67477	372.73721	881.12109	62.97021	322.08441	655.84875	53.47366	350.71933	634.34149	73.72366	303.45044	670.45630	48.43557	231.53761
583	4.85000	775.56592	1062.35608	401.72675	552.64807	1018.21161	479.42722	521.25525	717.51355	518.04871	498.26486	680.17950	518.41937	477.85220	734.74268	516.24048	450.44360	705.09619	514.20819	420.37082	561.61340	511.66428	403.83304	561.50745	371.72574	437.96069	455.29794	515.15424	425.23965	414.44171	514.40100	378.01834	466.88727	503.78574	375.03275	424.73013	504.60001	403.50842	131.35103	479.91068	379.30771	134.96634	395.39032	462.76321	87.42478	422.61743	261.82947	84.78748	518.70764	213.88681	100.82482	458.10675	228.14323	85.14906	413.69345	778.21631	1050.85132	295.76410	556.17651	1013.35645	194.17456	723.81323	728.28693	179.40939	724.65930	685.82965	183.89261	662.45551	718.82990	171.55576	672.62378	674.42542	180.98155	702.59497	541.26373	213.40858	694.08984	541.64789	329.34375	802.79523	343.44540	229.63757	805.25964	296.59610	239.20927	743.02496	332.53482	222.96762	755.23596	287.04373	229.75427	812.47729	101.79566	241.42049	782.22729	113.82438	372.82410	880.76886	63.51794	322.17627	655.70758	53.01107	350.81058	634.08807	73.29339	303.52255	670.23639	48.23869	231.66048
584	4.85833	764.55212	1060.15588	402.43826	541.52271	1015.93182	479.86960	513.50317	713.50793	516.91565	490.98798	676.16528	517.39709	469.16312	731.35999	515.53632	442.83673	700.78375	513.65582	413.15833	557.30103	510.23111	394.09262	558.91187	370.57794	425.87360	450.34528	512.93353	411.24252	410.16190	512.26935	366.23703	464.79965	502.71243	361.10037	422.63397	503.19473	375.31229	128.67020	477.06433	349.61731	133.85965	392.95224	431.53009	82.40919	418.36749	232.20749	88.52223	518.17847	183.91260	107.31836	458.38513	196.69905	91.18957	413.87381	767.34485	1048.76501	296.48764	545.53497	1011.29388	194.71996	716.42261	728.08490	179.68732	717.81549	685.69720	184.14355	655.67810	717.83710	170.13692	666.09741	673.82928	181.08925	697.61212	540.77039	213.41476	688.69843	541.39294	329.67703	799.67578	343.92639	229.89566	802.66931	297.09711	239.40338	740.04999	332.42734	223.11833	752.77661	287.06274	229.93637	811.76355	102.35551	241.50363	781.41895	114.07983	372.84677	880.42261	64.21709	322.21759	655.45654	52.53240	350.81918	634.00989	72.91647	303.51651	669.73926	47.78888	231.77798
585	4.86667	753.51508	1057.92102	403.15601	530.35828	1013.41772	480.60196	506.25156	709.42474	515.82129	485.91870	673.99255	515.61664	460.39532	727.89008	514.77582	435.54892	696.22021	513.12756	406.10144	552.70074	508.56396	384.34018	555.88220	369.11569	414.13824	445.28760	510.49911	397.48294	405.89868	509.87350	354.86459	462.51086	501.50012	347.64880	420.34457	501.68921	347.85071	126.51409	473.74130	320.79471	133.44508	390.17590	400.43561	77.88799	413.60031	204.15289	92.84003	517.60919	155.42801	114.23653	458.86951	166.59377	97.77338	414.02618	756.46979	1046.63989	297.21057	534.83582	1009.22272	195.24281	708.86450	727.81189	179.78931	710.68237	685.44025	184.29938	648.28546	716.82007	169.35344	658.96906	672.95624	181.35004	693.79822	541.22058	211.40666	682.81116	540.86041	329.88007	796.40637	344.37601	230.10425	799.83850	297.55240	239.58290	737.01105	332.27881	223.29308	750.10559	287.05011	230.05176	810.99091	102.97521	241.65071	780.31549	114.23554	372.60129	880.09448	65.09496	322.27161	655.09259	51.88489	350.71722	633.82062	72.49041	303.56680	669.55994	47.65517	231.82596
586	4.87500	742.43378	1055.61462	403.87778	518.97772	1010.80188	481.19830	498.50549	704.95184	514.60632	478.81451	669.42706	514.42096	451.51086	724.36353	513.95514	427.99472	691.11322	512.22772	399.33032	547.79559	506.74149	374.38104	553.43390	369.48944	402.68652	440.15314	507.83228	384.29355	401.64075	507.24655	344.03854	460.10959	500.11768	334.71866	417.94052	499.95819	321.59213	125.02865	470.23926	293.10754	133.70303	387.27728	371.27686	74.91817	408.52234	177.36615	97.37689	516.88550	128.44403	121.35216	459.36255	138.02423	105.01850	413.89066	745.46106	1044.42932	297.94705	524.15002	1007.06342	195.75699	700.91919	727.31915	179.88039	703.17371	685.01373	184.45578	640.00897	717.35425	172.76237	651.61255	672.05365	181.62103	688.06903	540.63550	211.51649	676.47601	540.14740	329.79526	792.93463	344.86444	230.25696	796.92480	298.12082	239.72549	733.65570	332.12375	223.31818	747.28711	287.08521	230.10887	810.24237	103.65235	241.74452	779.33490	114.49814	372.59238	879.69519	66.05781	322.38513	654.86035	51.41848	350.69568	633.43579	72.00142	303.52438	669.96643	47.96540	231.62415
587	4.88333	731.18622	1053.13184	404.68130	507.52243	1007.99957	481.83847	491.03668	700.51001	513.38928	471.28156	664.51666	513.16962	442.47198	720.81122	513.07050	420.48477	685.91382	511.49875	392.65140	542.68054	504.75418	365.25903	550.65533	368.06961	391.54907	434.99582	504.96326	371.46384	397.32874	504.45538	333.53543	457.49442	498.60901	322.27304	415.52402	498.05118	296.40652	123.97209	466.42673	266.61557	134.62263	384.35004	341.84564	71.90735	403.56900	152.07329	102.09625	516.02856	103.11631	128.59848	459.71371	110.86220	112.35603	413.92587	734.48920	1042.17761	298.75845	513.65924	1004.99664	196.30318	692.91595	726.86066	179.90587	695.60114	684.53455	184.49390	632.09692	716.23401	172.82246	644.08899	671.02539	181.63785	681.25470	539.40027	212.13310	670.06018	539.31140	329.71848	789.37305	345.41724	230.37946	793.88983	298.63977	239.86906	730.20337	331.95126	223.40697	744.38501	287.16953	229.93726	809.32440	104.31607	241.83923	778.59650	115.03699	372.86035	879.34473	67.21255	322.41159	655.02075	51.36860	350.99210	633.21326	71.60670	303.60410	669.79352	47.84714	231.63875
588	4.89167	719.79913	1050.59326	405.54733	496.08145	1005.10321	482.56168	482.96957	695.78674	511.95081	463.80881	659.72742	511.83463	433.24060	717.26367	512.11798	412.57758	680.74475	510.72507	386.20505	537.54761	502.56583	356.18002	547.83606	366.59641	380.69043	429.92200	501.95596	359.17261	393.17938	501.58209	323.41479	455.13120	497.48581	310.56256	413.09976	496.11838	272.40042	123.27104	462.76547	241.39594	135.85593	381.38641	314.46237	70.10764	398.50717	127.44064	105.88158	514.59021	79.50014	135.66911	459.90604	85.78885	119.71894	414.01828	723.37000	1039.91089	299.63818	502.48837	1002.76782	197.04411	685.33362	726.67175	179.71501	687.84741	684.01398	184.58382	624.18964	715.18573	172.74039	636.53577	670.05334	181.73555	676.02783	539.22156	211.50737	663.14600	538.37793	329.48834	785.71057	345.92200	230.42839	790.70264	299.20163	239.90094	726.69189	331.80228	223.29570	741.32819	286.94254	230.03700	808.50220	105.06841	241.83450	777.66400	115.44823	372.82574	878.90887	68.34657	322.37357	655.00024	51.02532	351.09924	633.03473	71.23750	303.61929	669.58368	47.65696	231.67888
589	4.90000	708.37335	1048.08386	406.48532	484.58115	1002.48669	483.58514	474.63113	691.26215	510.39456	455.85229	654.85596	510.40677	423.77899	713.75183	511.09372	404.44095	675.55408	509.60327	379.54608	532.42560	500.25092	347.33072	545.09015	364.94223	370.13672	425.04120	498.88043	347.26312	389.20157	498.53186	313.67563	452.40253	495.50800	299.08118	410.71198	494.01215	249.83865	122.89008	459.27902	218.03352	137.72636	378.64465	288.82486	68.99192	393.66867	105.20863	110.59252	513.53546	57.61962	142.44318	459.77353	62.41418	127.15229	413.73242	712.14514	1037.63391	300.56891	491.55389	1000.61377	197.66167	676.52527	725.66479	179.96652	680.03107	683.51996	184.53247	615.83209	713.75024	172.89847	628.87769	668.90656	181.69170	669.14502	538.03577	211.96765	656.32550	537.56702	329.17682	781.88025	346.43808	230.38524	787.49884	299.77481	239.82199	723.09143	331.51550	223.26634	738.20801	286.94720	229.91670	807.52258	105.83585	241.79417	776.77075	115.96354	372.72614	878.42267	69.61471	322.30569	654.89166	50.74092	351.14960	632.87427	70.91138	303.69556	669.53925	47.61071	231.59691
